# xmcd CD database file
#
# Track frame offsets:
#	150
#	26637
#	30621
#	49769
#	91290
#	117786
#	140876
#	144782
#	179236
#	211787
#	238414
#	264113
#	268217
#
# Disc length: 3809 seconds
#
# Revision: 0
# Processed by: cddbd v1.5.2PL0 Copyright (c) Steve Scherf et al.
# Submitted via: CDex 1.51
#
DISCID=bf0edf0d
DTITLE=Esther Kaiser - Learning How To Listen
DYEAR=2014
DGENRE=Jazz
TTITLE0=Learning How To Listen
TTITLE1=Blue Monk 'Going Alone'
TTITLE2=The Music Is The Magic
TTITLE3=First Song - Conversation With A Baby
TTITLE4=Avec le temps
TTITLE5=And It's Supposed To Be Love
TTITLE6=Blue Monk 'Live Is A School'
TTITLE7=Throw It Away
TTITLE8=A Turtle's Dream
TTITLE9=Love Has Gone Away
TTITLE10=Storywise
TTITLE11=Blue Monk 'Finding Your Own Place In The Sun'
TTITLE12=Being Me
EXTD=YEAR: 2014
EXTT0=
EXTT1=
EXTT2=
EXTT3=
EXTT4=
EXTT5=
EXTT6=
EXTT7=
EXTT8=
EXTT9=
EXTT10=
EXTT11=
EXTT12=
PLAYORDER=
